<?xml version="1.0" standalone="no"?>
<!DOCTYPE svg PUBLIC "-//W3C//DTD SVG 20010904//EN"
 "http://www.w3.org/TR/2001/REC-SVG-20010904/DTD/svg10.dtd">
<svg version="1.0" xmlns="http://www.w3.org/2000/svg"
 width="333.000000pt" height="333.000000pt" viewBox="0 0 333.000000 333.000000"
 preserveAspectRatio="xMidYMid meet">
<metadata>
Created by potrace 1.11, written by Peter Selinger 2001-2013
</metadata>
<g transform="translate(0.000000,333.000000) scale(0.100000,-0.100000)"
fill="#000000" stroke="none">
<path d="M0 1665 l0 -1665 1665 0 1665 0 0 1665 0 1665 -1665 0 -1665 0 0
-1665z m720 1438 c388 -84 701 -293 833 -558 13 -27 47 -108 76 -180 94 -240
223 -470 359 -640 31 -38 105 -121 166 -184 131 -138 136 -131 -100 -138 -332
-11 -624 47 -878 174 -126 63 -197 113 -298 211 -157 152 -271 354 -323 573
l-13 57 35 -24 c90 -61 299 -39 548 57 106 41 206 96 213 117 6 18 -42 15
-129 -8 -357 -93 -595 -53 -681 115 -20 38 -21 51 -14 220 4 99 9 194 12 212
7 37 5 37 194 -4z m93 16 c330 -66 589 -213 732 -414 58 -82 78 -125 132 -278
124 -358 255 -572 494 -810 121 -120 167 -173 158 -181 -2 -2 -15 -6 -29 -8
-22 -5 -38 9 -122 101 -53 58 -120 135 -149 171 -135 167 -277 422 -374 670
-64 162 -98 230 -160 310 -151 196 -411 351 -730 435 -111 30 -87 32 48 4z
m1012 -780 c75 -23 161 -29 238 -15 45 8 47 8 47 -15 0 -13 -16 -80 -35 -149
-20 -69 -38 -151 -42 -183 -3 -32 -10 -60 -15 -63 -4 -3 -23 -1 -41 5 -37 13
-107 116 -177 262 -46 97 -76 193 -57 185 7 -2 44 -15 82 -27z m-1268 -71 c-3
-8 -6 -5 -6 6 -1 11 2 17 5 13 3 -3 4 -12 1 -19z m83 -198 c76 -151 214 -309
360 -412 259 -183 685 -292 1070 -275 74 4 152 9 173 13 30 5 37 4 37 -10 0
-9 -12 -21 -26 -26 -45 -18 -265 -32 -384 -25 -684 39 -1128 320 -1284 813
-32 102 -33 128 -2 47 13 -33 38 -89 56 -125z m44 -275 c70 -118 158 -234 226
-300 l51 -50 -20 55 c-18 48 -19 56 -6 69 13 14 32 7 165 -59 l149 -74 -58
-21 c-78 -29 -125 -63 -111 -80 19 -23 172 -121 245 -158 158 -78 280 -105
530 -117 110 -6 227 -17 260 -25 177 -44 340 -172 544 -425 83 -103 83 -100 6
-100 -54 0 -67 3 -71 18 -3 9 -19 45 -35 79 -64 129 -216 237 -424 300 -80 24
-106 27 -230 27 -137 0 -143 -1 -275 -43 -178 -55 -271 -67 -409 -52 -140 15
-208 33 -316 86 -256 123 -430 384 -515 772 -29 132 -24 144 11 28 83 -275
168 -413 337 -547 113 -90 125 -89 36 3 -184 192 -253 324 -328 632 -20 80
-36 149 -35 154 0 4 23 -52 50 -126 27 -74 67 -172 89 -219 94 -200 237 -367
379 -442 13 -7 -22 32 -78 86 -139 133 -224 262 -285 434 -34 92 -99 337 -94
352 2 5 28 -52 57 -128 97 -252 187 -407 304 -525 56 -56 163 -139 181 -139 3
0 -34 38 -82 85 -174 167 -300 384 -375 645 -43 151 -39 158 16 28 30 -70 80
-170 111 -223z m2231 -328 c-238 -126 -317 -247 -240 -370 14 -23 42 -67 61
-97 19 -30 42 -77 50 -105 19 -58 30 -248 20 -329 l-7 -55 -44 87 c-24 48 -73
121 -107 161 -124 147 -329 302 -495 374 -94 41 -328 120 -480 162 -57 16
-101 30 -99 32 2 2 59 -3 127 -11 345 -42 465 -33 738 55 102 33 249 75 326
94 242 59 258 59 150 2z m-59 -89 c-88 -88 -124 -153 -112 -202 3 -14 25 -47
48 -73 76 -88 108 -187 108 -337 0 -114 -15 -194 -41 -223 -13 -12 -24 -22
-25 -20 -2 1 1 34 7 72 20 144 -27 377 -94 466 -48 62 -57 83 -57 124 0 76 59
153 179 233 35 23 65 42 67 42 2 0 -34 -37 -80 -82z m-1299 -44 c-3 -3 -12 -4
-19 -1 -8 3 -5 6 6 6 11 1 17 -2 13 -5z m768 -527 c89 -52 187 -145 220 -210
42 -84 40 -87 -67 -87 l-91 0 20 23 c33 36 36 61 13 116 -21 47 -101 134 -175
189 -44 32 -3 16 80 -31z"/>
<path d="M965 2953 c-32 -8 -55 -34 -55 -64 0 -56 93 -128 166 -129 40 0 84
34 84 66 0 39 -64 102 -123 119 -28 8 -51 14 -51 14 -1 -1 -10 -4 -21 -6z"/>
</g>
</svg>
